<svg width="81" height="80" viewBox="0 0 81 80" fill="none" xmlns="http://www.w3.org/2000/svg">
<g id="Circle">
<g id="Circle_2">
<g id="2" opacity="0.3" filter="url(#filter0_f_2403_57129)">
<circle cx="40.5869" cy="40.0012" r="27.9992" fill="#A5A8FF"/>
</g>
</g>
<path id="Exclude" fill-rule="evenodd" clip-rule="evenodd" d="M56.5869 40C56.5869 48.8366 49.4235 56 40.5869 56C31.7504 56 24.5869 48.8366 24.5869 40C24.5869 31.1634 31.7504 24 40.5869 24C49.4235 24 56.5869 31.1634 56.5869 40ZM46.3694 40C46.4324 39.9946 46.4954 39.9812 46.5556 39.957C46.7904 39.8655 46.9422 39.6531 46.9422 39.4138V38.8625H49.2331V39.4165C49.2331 39.6558 49.3849 39.8682 49.6197 39.957C49.6799 39.9812 49.7429 39.9946 49.8059 40V34.56H50.5876L48.0876 32L45.5876 34.56H46.3694V40ZM41.5556 36.957C41.4954 36.9812 41.4324 36.9946 41.3694 37V31.56H40.5876L43.0876 29L45.5876 31.56H44.8059V37C44.7429 36.9946 44.6799 36.9812 44.6197 36.957C44.3849 36.8682 44.2331 36.6558 44.2331 36.4165V35.8625H41.9422V36.4138C41.9422 36.6531 41.7904 36.8655 41.5556 36.957ZM36.3694 35C36.4324 34.9946 36.4954 34.9812 36.5556 34.957C36.7904 34.8655 36.9422 34.6531 36.9422 34.4138V33.8625H39.2331V34.4165C39.2331 34.6558 39.3849 34.8682 39.6197 34.957C39.6799 34.9812 39.7429 34.9946 39.8059 35V29.56H40.5876L38.0876 27L35.5876 29.56H36.3694V35ZM40.8181 49C38.5197 49 36.5737 47.1212 36.5737 43.5C36.5737 39.8788 38.5197 38 40.8181 38C43.1165 38 45.0624 39.8788 45.0624 43.5C45.0624 47.1212 43.1165 49 40.8181 49ZM40.8181 46.9091C41.8753 46.9091 42.8713 45.9394 42.8713 43.5C42.8713 41.0606 41.8753 40.0909 40.8181 40.0909C39.7608 40.0909 38.7649 41.0606 38.7649 43.5C38.7649 45.9394 39.7608 46.9091 40.8181 46.9091ZM32.7707 41.7273C34.824 41.7273 36.3409 43.2576 36.3409 45.303C36.3409 47.3333 34.732 49 32.403 49C30.1965 49 28.7562 47.4848 28.5876 45.8182H30.7788C30.8554 46.3182 31.4683 47 32.3877 47C33.4449 47 34.1498 46.2424 34.1498 45.303C34.1498 44.3485 33.4449 43.5758 32.3877 43.5758C31.361 43.5758 30.932 44.2121 30.7481 44.5758H28.8175L29.507 38.197H35.5748V40.197H31.2844L31.0852 42.197C31.453 41.9545 32.0199 41.7273 32.7707 41.7273ZM52.5876 48.803L49.9828 44.8636L52.4038 41.0758H50.136L48.7417 43.3939L47.332 41.0758H44.9723L47.4086 44.8636L44.8038 48.803H47.1022L48.6497 46.303L50.1973 48.803H52.5876Z" fill="white" fill-opacity="0.7"/>
</g>
<defs>
<filter id="filter0_f_2403_57129" x="0.587646" y="0.00195312" width="79.9985" height="79.998" filterUnits="userSpaceOnUse" color-interpolation-filters="sRGB">
<feFlood flood-opacity="0" result="BackgroundImageFix"/>
<feBlend mode="normal" in="SourceGraphic" in2="BackgroundImageFix" result="shape"/>
<feGaussianBlur stdDeviation="6" result="effect1_foregroundBlur_2403_57129"/>
</filter>
</defs>
</svg>
