<svg width="81" height="80" viewBox="0 0 81 80" fill="none" xmlns="http://www.w3.org/2000/svg">
<g id="Circle">
<g id="Circle_2">
<g id="2" opacity="0.3" filter="url(#filter0_f_2403_57144)">
<circle cx="40.5869" cy="40.0012" r="27.9992" fill="#A5A8FF"/>
</g>
</g>
<path id="Exclude" fill-rule="evenodd" clip-rule="evenodd" d="M40.5869 56C49.4235 56 56.5869 48.8366 56.5869 40C56.5869 31.1634 49.4235 24 40.5869 24C31.7504 24 24.5869 31.1634 24.5869 40C24.5869 48.8366 31.7504 56 40.5869 56ZM47.5869 44V45.883C46.4538 45.6731 45.3901 45.1866 44.4901 44.4668C43.5901 43.7471 42.8818 42.8163 42.4279 41.757L41.6749 40L42.4279 38.243C42.8818 37.1837 43.5901 36.2529 44.4901 35.5332C45.3901 34.8134 46.4538 34.3269 47.5869 34.117V36L52.5869 33L47.5869 30V32.09C46.0585 32.3088 44.612 32.9171 43.3866 33.8565C42.1612 34.7959 41.1981 36.0348 40.5899 37.454L40.5869 37.46L40.5839 37.455C39.8901 35.8361 38.7366 34.4563 37.2662 33.4866C35.7958 32.517 34.0732 32.0001 32.3119 32H31.5869V34H32.3119C33.6819 34 35.0218 34.4021 36.1654 35.1563C37.3091 35.9105 38.2063 36.9838 38.7459 38.243L39.4989 40L38.7459 41.757C38.2063 43.0162 37.3091 44.0895 36.1654 44.8437C35.0218 45.5979 33.6819 46 32.3119 46H31.5869V48H32.3119C34.0731 48 35.7956 47.4833 37.266 46.5138C38.7364 45.5443 39.89 44.1647 40.5839 42.546L40.5869 42.54L40.5899 42.545C41.198 43.9644 42.161 45.2034 43.3864 46.143C44.6118 47.0826 46.0584 47.6911 47.5869 47.91V50L52.5869 47L47.5869 44Z" fill="white" fill-opacity="0.7"/>
</g>
<defs>
<filter id="filter0_f_2403_57144" x="0.587646" y="0.00195312" width="79.9985" height="79.998" filterUnits="userSpaceOnUse" color-interpolation-filters="sRGB">
<feFlood flood-opacity="0" result="BackgroundImageFix"/>
<feBlend mode="normal" in="SourceGraphic" in2="BackgroundImageFix" result="shape"/>
<feGaussianBlur stdDeviation="6" result="effect1_foregroundBlur_2403_57144"/>
</filter>
</defs>
</svg>
